{
    "asset" : {
        "generator" : "Khronos glTF Blender I/O v3.4.50",
        "version" : "2.0"
    },
    "extensionsUsed" : [
        "KHR_materials_specular",
        "KHR_materials_ior"
    ],
    "scene" : 0,
    "scenes" : [
        {
            "name" : "Scene",
            "nodes" : [
                0,
                1,
                2,
                3,
                4,
                5
            ]
        }
    ],
    "nodes" : [
        {
            "mesh" : 0,
            "name" : "plane",
            "scale" : [
                3,
                1,
                3
            ]
        },
        {
            "mesh" : 1,
            "name" : "bed",
            "rotation" : [
                0,
                1,
                0,
                0
            ],
            "scale" : [
                1.8301668167114258,
                0.28119218349456787,
                1.8301668167114258
            ],
            "translation" : [
                -0.3413740396499634,
                0.29928651452064514,
                -1.1767311096191406
            ]
        },
        {
            "mesh" : 2,
            "name" : "smallbed",
            "rotation" : [
                0,
                1,
                0,
                0
            ],
            "scale" : [
                1.6326909065246582,
                0.12276793271303177,
                1.7063343524932861
            ],
            "translation" : [
                -0.3413740396499634,
                0.6872758865356445,
                -1.3059451580047607
            ]
        },
        {
            "mesh" : 3,
            "name" : "quilt",
            "scale" : [
                1.572994589805603,
                1.572994589805603,
                1.572994589805603
            ],
            "translation" : [
                -0.3413740396499634,
                0.8356438279151917,
                -1.118194818496704
            ]
        },
        {
            "mesh" : 4,
            "name" : "pillow",
            "rotation" : [
                0,
                1,
                0,
                0
            ],
            "scale" : [
                -0.6480423212051392,
                -0.053575385361909866,
                -0.3523741364479065
            ],
            "translation" : [
                -0.39416444301605225,
                0.862725019454956,
                -2.5853683948516846
            ]
        },
        {
            "mesh" : 5,
            "name" : "window",
            "scale" : [
                1,
                0.5570067763328552,
                0.02986443042755127
            ],
            "translation" : [
                -0.3413740396499634,
                1.5914907455444336,
                2.988065481185913
            ]
        }
    ],
    "materials" : [
        {
            "doubleSided" : true,
            "name" : "\u6750\u8d28",
            "pbrMetallicRoughness" : {
                "baseColorFactor" : [
                    0.800000011920929,
                    0.800000011920929,
                    0.800000011920929,
                    1
                ],
                "metallicFactor" : 0.19090908765792847,
                "roughnessFactor" : 0.5
            }
        },
        {
            "doubleSided" : true,
            "name" : "bed",
            "pbrMetallicRoughness" : {
                "baseColorFactor" : [
                    0.800000011920929,
                    0.800000011920929,
                    0.800000011920929,
                    1
                ],
                "metallicFactor" : 0,
                "roughnessFactor" : 0.5
            }
        },
        {
            "doubleSided" : true,
            "extensions" : {
                "KHR_materials_specular" : {
                    "specularColorFactor" : [
                        0.0007086998819710676,
                        0.0007086998819710676,
                        0.0007086998819710676
                    ]
                },
                "KHR_materials_ior" : {
                    "ior" : 6.050000190734863
                }
            },
            "name" : "quilt-material",
            "pbrMetallicRoughness" : {
                "baseColorFactor" : [
                    0.0013580536469817162,
                    0.026875589042901993,
                    0.1917988806962967,
                    1
                ],
                "metallicFactor" : 0.06818182021379471,
                "roughnessFactor" : 0.3499999940395355
            }
        },
        {
            "doubleSided" : true,
            "name" : "pillow",
            "pbrMetallicRoughness" : {
                "baseColorFactor" : [
                    0.800000011920929,
                    0.800000011920929,
                    0.800000011920929,
                    1
                ],
                "metallicFactor" : 0,
                "roughnessFactor" : 0.5
            }
        },
        {
            "doubleSided" : true,
            "name" : "\u6750\u8d28.002",
            "pbrMetallicRoughness" : {
                "baseColorFactor" : [
                    0.025758028030395508,
                    0.025758028030395508,
                    0.025758028030395508,
                    1
                ],
                "metallicFactor" : 0.6636363863945007,
                "roughnessFactor" : 0.5
            }
        }
    ],
    "meshes" : [
        {
            "name" : "\u5e73\u9762.002",
            "primitives" : [
                {
                    "attributes" : {
                        "POSITION" : 0,
                        "TEXCOORD_0" : 1,
                        "NORMAL" : 2
                    },
                    "indices" : 3,
                    "material" : 0
                }
            ]
        },
        {
            "name" : "\u7acb\u65b9\u4f53",
            "primitives" : [
                {
                    "attributes" : {
                        "POSITION" : 4,
                        "TEXCOORD_0" : 5,
                        "NORMAL" : 6
                    },
                    "indices" : 7,
                    "material" : 1
                }
            ]
        },
        {
            "name" : "\u7acb\u65b9\u4f53.001",
            "primitives" : [
                {
                    "attributes" : {
                        "POSITION" : 8,
                        "TEXCOORD_0" : 9,
                        "NORMAL" : 10
                    },
                    "indices" : 7,
                    "material" : 1
                }
            ]
        },
        {
            "name" : "\u5e73\u9762.004",
            "primitives" : [
                {
                    "attributes" : {
                        "POSITION" : 11,
                        "TEXCOORD_0" : 12,
                        "NORMAL" : 13
                    },
                    "indices" : 14,
                    "material" : 2
                }
            ]
        },
        {
            "name" : "\u7acb\u65b9\u4f53.003",
            "primitives" : [
                {
                    "attributes" : {
                        "POSITION" : 15,
                        "TEXCOORD_0" : 16,
                        "NORMAL" : 17
                    },
                    "indices" : 18,
                    "material" : 3
                }
            ]
        },
        {
            "name" : "\u7acb\u65b9\u4f53.004",
            "primitives" : [
                {
                    "attributes" : {
                        "POSITION" : 19,
                        "TEXCOORD_0" : 20,
                        "NORMAL" : 21
                    },
                    "indices" : 22,
                    "material" : 4
                }
            ]
        }
    ],
    "accessors" : [
        {
            "bufferView" : 0,
            "componentType" : 5126,
            "count" : 80,
            "max" : [
                1.108098030090332,
                3,
                1
            ],
            "min" : [
                -1,
                0,
                -1
            ],
            "type" : "VEC3"
        },
        {
            "bufferView" : 1,
            "componentType" : 5126,
            "count" : 80,
            "type" : "VEC2"
        },
        {
            "bufferView" : 2,
            "componentType" : 5126,
            "count" : 80,
            "type" : "VEC3"
        },
        {
            "bufferView" : 3,
            "componentType" : 5123,
            "count" : 138,
            "type" : "SCALAR"
        },
        {
            "bufferView" : 4,
            "componentType" : 5126,
            "count" : 64,
            "max" : [
                1,
                1,
                1
            ],
            "min" : [
                -1,
                -1,
                -1
            ],
            "type" : "VEC3"
        },
        {
            "bufferView" : 5,
            "componentType" : 5126,
            "count" : 64,
            "type" : "VEC2"
        },
        {
            "bufferView" : 6,
            "componentType" : 5126,
            "count" : 64,
            "type" : "VEC3"
        },
        {
            "bufferView" : 7,
            "componentType" : 5123,
            "count" : 180,
            "type" : "SCALAR"
        },
        {
            "bufferView" : 8,
            "componentType" : 5126,
            "count" : 64,
            "max" : [
                1,
                1,
                1
            ],
            "min" : [
                -1,
                -1,
                -1
            ],
            "type" : "VEC3"
        },
        {
            "bufferView" : 9,
            "componentType" : 5126,
            "count" : 64,
            "type" : "VEC2"
        },
        {
            "bufferView" : 10,
            "componentType" : 5126,
            "count" : 64,
            "type" : "VEC3"
        },
        {
            "bufferView" : 11,
            "componentType" : 5126,
            "count" : 64,
            "max" : [
                1,
                0.397297739982605,
                1
            ],
            "min" : [
                -1.0735520124435425,
                0,
                -0.7846925258636475
            ],
            "type" : "VEC3"
        },
        {
            "bufferView" : 12,
            "componentType" : 5126,
            "count" : 64,
            "type" : "VEC2"
        },
        {
            "bufferView" : 13,
            "componentType" : 5126,
            "count" : 64,
            "type" : "VEC3"
        },
        {
            "bufferView" : 14,
            "componentType" : 5123,
            "count" : 126,
            "type" : "SCALAR"
        },
        {
            "bufferView" : 15,
            "componentType" : 5126,
            "count" : 86,
            "max" : [
                1.000256061553955,
                2.157866954803467,
                1
            ],
            "min" : [
                -1.00523042678833,
                -1.0085303783416748,
                -1.0004851818084717
            ],
            "type" : "VEC3"
        },
        {
            "bufferView" : 16,
            "componentType" : 5126,
            "count" : 86,
            "type" : "VEC2"
        },
        {
            "bufferView" : 17,
            "componentType" : 5126,
            "count" : 86,
            "type" : "VEC3"
        },
        {
            "bufferView" : 18,
            "componentType" : 5123,
            "count" : 132,
            "type" : "SCALAR"
        },
        {
            "bufferView" : 19,
            "componentType" : 5126,
            "count" : 24,
            "max" : [
                1,
                1,
                1
            ],
            "min" : [
                -1,
                -1,
                -1
            ],
            "type" : "VEC3"
        },
        {
            "bufferView" : 20,
            "componentType" : 5126,
            "count" : 24,
            "type" : "VEC2"
        },
        {
            "bufferView" : 21,
            "componentType" : 5126,
            "count" : 24,
            "type" : "VEC3"
        },
        {
            "bufferView" : 22,
            "componentType" : 5123,
            "count" : 36,
            "type" : "SCALAR"
        }
    ],
    "bufferViews" : [
        {
            "buffer" : 0,
            "byteLength" : 960,
            "byteOffset" : 0,
            "target" : 34962
        },
        {
            "buffer" : 0,
            "byteLength" : 640,
            "byteOffset" : 960,
            "target" : 34962
        },
        {
            "buffer" : 0,
            "byteLength" : 960,
            "byteOffset" : 1600,
            "target" : 34962
        },
        {
            "buffer" : 0,
            "byteLength" : 276,
            "byteOffset" : 2560,
            "target" : 34963
        },
        {
            "buffer" : 0,
            "byteLength" : 768,
            "byteOffset" : 2836,
            "target" : 34962
        },
        {
            "buffer" : 0,
            "byteLength" : 512,
            "byteOffset" : 3604,
            "target" : 34962
        },
        {
            "buffer" : 0,
            "byteLength" : 768,
            "byteOffset" : 4116,
            "target" : 34962
        },
        {
            "buffer" : 0,
            "byteLength" : 360,
            "byteOffset" : 4884,
            "target" : 34963
        },
        {
            "buffer" : 0,
            "byteLength" : 768,
            "byteOffset" : 5244,
            "target" : 34962
        },
        {
            "buffer" : 0,
            "byteLength" : 512,
            "byteOffset" : 6012,
            "target" : 34962
        },
        {
            "buffer" : 0,
            "byteLength" : 768,
            "byteOffset" : 6524,
            "target" : 34962
        },
        {
            "buffer" : 0,
            "byteLength" : 768,
            "byteOffset" : 7292,
            "target" : 34962
        },
        {
            "buffer" : 0,
            "byteLength" : 512,
            "byteOffset" : 8060,
            "target" : 34962
        },
        {
            "buffer" : 0,
            "byteLength" : 768,
            "byteOffset" : 8572,
            "target" : 34962
        },
        {
            "buffer" : 0,
            "byteLength" : 252,
            "byteOffset" : 9340,
            "target" : 34963
        },
        {
            "buffer" : 0,
            "byteLength" : 1032,
            "byteOffset" : 9592,
            "target" : 34962
        },
        {
            "buffer" : 0,
            "byteLength" : 688,
            "byteOffset" : 10624,
            "target" : 34962
        },
        {
            "buffer" : 0,
            "byteLength" : 1032,
            "byteOffset" : 11312,
            "target" : 34962
        },
        {
            "buffer" : 0,
            "byteLength" : 264,
            "byteOffset" : 12344,
            "target" : 34963
        },
        {
            "buffer" : 0,
            "byteLength" : 288,
            "byteOffset" : 12608,
            "target" : 34962
        },
        {
            "buffer" : 0,
            "byteLength" : 192,
            "byteOffset" : 12896,
            "target" : 34962
        },
        {
            "buffer" : 0,
            "byteLength" : 288,
            "byteOffset" : 13088,
            "target" : 34962
        },
        {
            "buffer" : 0,
            "byteLength" : 72,
            "byteOffset" : 13376,
            "target" : 34963
        }
    ],
    "buffers" : [
        {
            "byteLength" : 13448,
            "uri" : "room.bin"
        }
    ]
}
